<svg xmlns="http://www.w3.org/2000/svg" width="64" height="64" viewBox="0 0 24 24">
  <defs>
    <linearGradient id="brandGradient" x1="0" y1="0" x2="1" y2="1">
      <stop offset="0%" stop-color="#7C3AED"/>
      <stop offset="100%" stop-color="#6D28D9"/>
    </linearGradient>
  </defs>
  <rect x="0" y="0" width="24" height="24" rx="5" fill="url(#brandGradient)"/>
  <path d="M5 21v-16a2 2 0 0 1 2 -2h10a2 2 0 0 1 2 2v16l-3 -2l-2 2l-2 -2l-2 2l-2 -2l-3 2" stroke="#fff" stroke-width="1.9" fill="none" stroke-linecap="round" stroke-linejoin="round"/>
  <path d="M14 8h-2.5a1.5 1.5 0 0 0 0 3h1a1.5 1.5 0 0 1 0 3h-2.5m2 0v1.5m0 -9v1.5" stroke="#fff" stroke-width="1.9" fill="none" stroke-linecap="round" stroke-linejoin="round"/>
</svg>
